<svg width="114" height="125" viewBox="0 0 114 125" fill="none" xmlns="http://www.w3.org/2000/svg">
<path d="M27 0H80V30C80 35.5228 75.5228 40 70 40H37C31.4772 40 27 35.5228 27 30V0Z" fill="black"/>
<path d="M27 0H80V30C80 35.5228 75.5228 40 70 40H37C31.4772 40 27 35.5228 27 30V0Z" stroke="black"/>
<path d="M17 0H47C63.5685 0 77 13.4315 77 30V30H47C30.4315 30 17 16.5685 17 0V0Z" fill="black"/>
<path fill-rule="evenodd" clip-rule="evenodd" d="M7 64C7 38.5949 27.5949 18 53 18H61C86.4051 18 107 38.5949 107 64V72C107 97.4051 86.4051 118 61 118H53C27.5949 118 7 97.4051 7 72V64ZM36.7122 42.5659C37.45 41.0944 39.5502 41.0944 40.2879 42.5659L46.5478 55.0512C47.2146 56.3811 46.2477 57.9476 44.7599 57.9476H32.2401C30.7524 57.9476 29.7854 56.3811 30.4522 55.0512L36.7122 42.5659ZM58.7879 57.5659C58.0502 56.0944 55.95 56.0944 55.2122 57.5659L50.4522 67.0594C49.7854 68.3894 50.7524 69.9559 52.2401 69.9559H61.7599C63.2477 69.9559 64.2146 68.3894 63.5478 67.0595L58.7879 57.5659ZM73.7122 42.5659C74.45 41.0944 76.5502 41.0944 77.2879 42.5659L83.5478 55.0512C84.2146 56.3811 83.2477 57.9476 81.7599 57.9476H69.2401C67.7523 57.9476 66.7854 56.3811 67.4522 55.0512L73.7122 42.5659ZM37.5 74.5H31L31.8584 80.5091C32.2808 83.4655 33.3598 86.2898 35.0164 88.7746L36.84 91.5099C37.9405 93.1608 39.2806 94.6387 40.8162 95.8951L41.5135 96.4656C43.1606 97.8132 45.0123 98.8893 46.9986 99.6533L48.8974 100.384C49.8193 100.738 50.8619 100.367 51.3519 99.5092L54.5 94L56.5083 89.6488C56.8787 88.8461 58.0322 88.8837 58.3496 89.7089L60 94L62.7074 99.4149C63.1598 100.32 64.2164 100.744 65.169 100.404L67.1532 99.6953C69.3671 98.9046 71.4242 97.7298 73.2301 96.2249L74.4804 95.183C75.821 94.0658 77.0097 92.7779 78.0161 91.3522L79.4336 89.3441C81.443 86.4975 82.6738 83.1753 83.0041 79.7066L83.5 74.5H78.1141C77.4215 74.5 76.7782 74.8584 76.4136 75.4473L71.3191 83.6768C70.9359 84.2959 70.0407 84.311 69.6368 83.7052L64.0937 75.3906C63.7228 74.8342 63.0983 74.5 62.4296 74.5H51.6141C50.9215 74.5 50.2782 74.8584 49.9136 75.4473L44.8503 83.6265C44.4593 84.258 43.5407 84.258 43.1497 83.6265L37.5 74.5Z" fill="#F7630C"/>
<rect x="3.5" y="14.5" width="107" height="107" rx="49.5" stroke="black" stroke-width="7" stroke-linejoin="round"/>
<path d="M61 5H74V18.5C74 22.0899 71.0899 25 67.5 25C63.9101 25 61 22.0899 61 18.5V5Z" fill="#8E562E"/>
<path d="M61 5H74V18.5C74 22.0899 71.0899 25 67.5 25C63.9101 25 61 22.0899 61 18.5V5Z" stroke="black"/>
<path d="M27 5H47C58.0457 5 67 13.9543 67 25V25H47C35.9543 25 27 16.0457 27 5V5Z" fill="#13A10E"/>
</svg>
